<?xml version="1.0" standalone="no"?>
<!DOCTYPE svg PUBLIC "-//W3C//DTD SVG 20010904//EN"
 "http://www.w3.org/TR/2001/REC-SVG-20010904/DTD/svg10.dtd">
<svg version="1.0" xmlns="http://www.w3.org/2000/svg"
 width="547.000000pt" height="547.000000pt" viewBox="0 0 547.000000 547.000000"
 preserveAspectRatio="xMidYMid meet">

<g transform="translate(0.000000,547.000000) scale(0.100000,-0.100000)"
fill="#000000" stroke="none">
<path d="M0 4705 l0 -765 765 0 765 0 0 765 0 765 -765 0 -765 0 0 -765z
m1310 0 l0 -545 -545 0 -545 0 0 545 0 545 545 0 545 0 0 -545z"/>
<path d="M440 4705 l0 -325 325 0 325 0 0 325 0 325 -325 0 -325 0 0 -325z"/>
<path d="M1750 5250 l0 -220 110 0 110 0 0 -110 0 -110 110 0 110 0 0 110 0
110 -110 0 -110 0 0 110 0 110 220 0 220 0 0 -110 0 -110 110 0 110 0 0 220 0
220 -440 0 -440 0 0 -220z"/>
<path d="M2840 5360 l0 -110 110 0 110 0 0 -110 0 -110 -110 0 -110 0 0 -220
0 -220 -105 0 -105 0 0 110 0 110 -110 0 -110 0 0 -215 0 -215 -220 0 -220 0
0 105 0 105 -110 0 -110 0 0 -545 0 -545 220 0 220 0 0 220 0 220 110 0 110 0
0 220 0 220 325 0 325 0 0 -330 0 -330 110 0 110 0 0 330 0 330 110 0 110 0 0
-220 0 -220 110 0 110 0 0 220 0 220 -110 0 -110 0 0 105 0 105 110 0 110 0 0
110 0 110 -220 0 -220 0 0 330 0 330 -220 0 -220 0 0 -110z m-650 -1310 l0
-110 -110 0 -110 0 0 110 0 110 110 0 110 0 0 -110z"/>
<path d="M3940 4705 l0 -765 765 0 765 0 0 765 0 765 -765 0 -765 0 0 -765z
m1310 0 l0 -545 -545 0 -545 0 0 545 0 545 545 0 545 0 0 -545z"/>
<path d="M4380 4705 l0 -325 325 0 325 0 0 325 0 325 -325 0 -325 0 0 -325z"/>
<path d="M3500 5140 l0 -110 110 0 110 0 0 110 0 110 -110 0 -110 0 0 -110z"/>
<path d="M2630 3940 l0 -220 -110 0 -110 0 0 -220 0 -220 -220 0 -220 0 0
-110 0 -110 -110 0 -110 0 0 -110 0 -110 110 0 110 0 0 -105 0 -105 -220 0
-220 0 0 105 0 105 -110 0 -110 0 0 -105 0 -105 110 0 110 0 0 -110 0 -110
-325 0 -325 0 0 110 0 110 -110 0 -110 0 0 105 0 105 110 0 110 0 0 330 0 330
-110 0 -110 0 0 110 0 110 -330 0 -330 0 0 -440 0 -440 110 0 110 0 0 110 0
110 110 0 110 0 0 110 0 110 -110 0 -110 0 0 110 0 110 220 0 220 0 0 -330 0
-330 -110 0 -110 0 0 -215 0 -215 -220 0 -220 0 0 -110 0 -110 220 0 220 0 0
-110 0 -110 -220 0 -220 0 0 -110 0 -110 330 0 330 0 0 110 0 110 110 0 110 0
0 -110 0 -110 105 0 105 0 0 220 0 220 220 0 220 0 0 -110 0 -110 -110 0 -110
0 0 -110 0 -110 220 0 220 0 0 -110 0 -110 110 0 110 0 0 -110 0 -110 -110 0
-110 0 0 -110 0 -110 110 0 110 0 0 -215 0 -215 -110 0 -110 0 0 -330 0 -330
110 0 110 0 0 110 0 110 220 0 220 0 0 -110 0 -110 110 0 110 0 0 110 0 110
-110 0 -110 0 0 110 0 110 215 0 215 0 0 110 0 110 110 0 110 0 0 110 0 110
-215 0 -215 0 0 -110 0 -110 -110 0 -110 0 0 110 0 110 -110 0 -110 0 0 105 0
105 325 0 325 0 0 110 0 110 110 0 110 0 0 220 0 220 -110 0 -110 0 0 110 0
110 -105 0 -105 0 0 110 0 110 215 0 215 0 0 -110 0 -110 110 0 110 0 0 110 0
110 110 0 110 0 0 -440 0 -440 -110 0 -110 0 0 -325 0 -325 220 0 220 0 0
-110 0 -110 -110 0 -110 0 0 -110 0 -110 -110 0 -110 0 0 110 0 110 -110 0
-110 0 0 -110 0 -110 110 0 110 0 0 -110 0 -110 220 0 220 0 0 110 0 110 110
0 110 0 0 -110 0 -110 110 0 110 0 0 110 0 110 215 0 215 0 0 -110 0 -110 110
0 110 0 0 110 0 110 -110 0 -110 0 0 110 0 110 110 0 110 0 0 110 0 110 110 0
110 0 0 -110 0 -110 220 0 220 0 0 110 0 110 -110 0 -110 0 0 110 0 110 -220
0 -220 0 0 -110 0 -110 -110 0 -110 0 0 655 0 655 110 0 110 0 0 110 0 110
110 0 110 0 0 110 0 110 110 0 110 0 0 -110 0 -110 110 0 110 0 0 325 0 325
-110 0 -110 0 0 -105 0 -105 -110 0 -110 0 0 -110 0 -110 -220 0 -220 0 0
-110 0 -110 -215 0 -215 0 0 -110 0 -110 -110 0 -110 0 0 110 0 110 -220 0
-220 0 0 110 0 110 110 0 110 0 0 215 0 215 -110 0 -110 0 0 110 0 110 110 0
110 0 0 220 0 220 110 0 110 0 0 -110 0 -110 110 0 110 0 0 -110 0 -110 -110
0 -110 0 0 -325 0 -325 220 0 220 0 0 110 0 110 -110 0 -110 0 0 105 0 105
110 0 110 0 0 110 0 110 105 0 105 0 0 -110 0 -110 110 0 110 0 0 110 0 110
110 0 110 0 0 110 0 110 110 0 110 0 0 -110 0 -110 110 0 110 0 0 330 0 330
-220 0 -220 0 0 -220 0 -220 -110 0 -110 0 0 110 0 110 -110 0 -110 0 0 110 0
110 -545 0 -545 0 0 -110 0 -110 -220 0 -220 0 0 -110 0 -110 110 0 110 0 0
-545 0 -545 -110 0 -110 0 0 110 0 110 -110 0 -110 0 0 325 0 325 -105 0 -105
0 0 110 0 110 105 0 105 0 0 110 0 110 -105 0 -105 0 0 110 0 110 105 0 105 0
0 220 0 220 -105 0 -105 0 0 -220z m1960 -550 l0 -110 -215 0 -215 0 0 110 0
110 215 0 215 0 0 -110z m-2400 -440 l0 -110 -110 0 -110 0 0 110 0 110 110 0
110 0 0 -110z m440 -215 l0 -105 -110 0 -110 0 0 105 0 105 110 0 110 0 0
-105z m-440 -325 l0 -220 110 0 110 0 0 -220 0 -220 -110 0 -110 0 0 -110 0
-110 110 0 110 0 0 -110 0 -110 -110 0 -110 0 0 -110 0 -110 -110 0 -110 0 0
110 0 110 110 0 110 0 0 110 0 110 -110 0 -110 0 0 220 0 220 -110 0 -110 0 0
110 0 110 110 0 110 0 0 220 0 220 110 0 110 0 0 -220z m-1310 -110 l0 -110
-110 0 -110 0 0 110 0 110 110 0 110 0 0 -110z m3500 -880 l0 -330 -330 0
-330 0 0 330 0 330 330 0 330 0 0 -330z m-1540 0 l0 -110 -105 0 -105 0 0 110
0 110 105 0 105 0 0 -110z m1540 -650 l0 -110 -110 0 -110 0 0 -220 0 -220
-110 0 -110 0 0 330 0 330 220 0 220 0 0 -110z m-1970 -220 l0 -110 -220 0
-220 0 0 110 0 110 220 0 220 0 0 -110z"/>
<path d="M1970 2080 l0 -110 110 0 110 0 0 110 0 110 -110 0 -110 0 0 -110z"/>
<path d="M3940 1420 l0 -110 110 0 110 0 0 110 0 110 -110 0 -110 0 0 -110z"/>
<path d="M1090 3500 l0 -220 110 0 110 0 0 -110 0 -110 110 0 110 0 0 110 0
110 -110 0 -110 0 0 110 0 110 110 0 110 0 0 110 0 110 -220 0 -220 0 0 -220z"/>
<path d="M5030 1860 l0 -110 110 0 110 0 0 -220 0 -220 110 0 110 0 0 220 0
220 -110 0 -110 0 0 110 0 110 -110 0 -110 0 0 -110z"/>
<path d="M0 765 l0 -765 765 0 765 0 0 765 0 765 -765 0 -765 0 0 -765z m1310
0 l0 -545 -545 0 -545 0 0 545 0 545 545 0 545 0 0 -545z"/>
<path d="M440 765 l0 -325 325 0 325 0 0 325 0 325 -325 0 -325 0 0 -325z"/>
<path d="M5250 110 l0 -110 110 0 110 0 0 110 0 110 -110 0 -110 0 0 -110z"/>
</g>
</svg>
